<?xml version="1.0" encoding="UTF-8"?>
<svg version="1.1" xmlns="http://www.w3.org/2000/svg" width="302" height="285">
<path d="M0,0 L302,0 L302,285 L0,285 Z M12,4 L2,5 L3,8 L11,8 L11,10 L7,12 L5,16 L3,15 L2,17 L2,57 L3,64 L4,64 L5,52 L6,51 L7,57 L8,57 L8,41 L8,38 L11,34 L16,32 L30,30 L33,28 L37,27 L46,24 L52,23 L59,22 L67,18 L74,17 L75,15 L80,13 L87,10 L101,7 L101,5 L96,4 Z M106,5 L105,7 L112,7 L117,6 L117,5 Z M156,5 L158,7 L163,7 L163,5 Z M181,4 L167,5 L167,6 L176,8 L182,8 L182,10 L186,12 L187,14 L190,14 L190,12 L194,16 L214,19 L215,20 L222,21 L223,22 L230,23 L238,26 L241,27 L242,30 L250,33 L258,33 L273,29 L283,29 L293,21 L292,24 L296,22 L300,20 L300,7 L298,11 L297,14 L292,14 L291,12 L280,10 L239,10 L218,9 L258,8 L286,8 L297,7 L296,5 Z M85,12 Z M209,19 Z M217,21 Z M223,23 Z M290,24 L288,28 L292,26 L292,24 Z M287,28 L288,30 Z M299,29 L297,35 L297,51 L296,54 L294,53 L293,58 L287,60 L282,67 L280,75 L279,86 L273,102 L271,104 L269,109 L268,129 L265,147 L261,159 L258,171 L257,175 L255,175 L255,170 L253,169 L250,178 L252,181 L255,178 L254,183 L250,194 L244,205 L239,214 L233,221 L232,225 L228,227 L224,230 L221,230 L221,232 L217,233 L213,237 L209,244 L203,249 L201,250 L201,252 L197,253 L190,261 L179,268 L171,274 L168,277 L158,280 L155,283 L167,283 L173,284 L294,284 L300,282 L301,276 L301,102 L300,29 Z M285,31 Z M3,80 L2,85 L1,119 L1,136 L3,179 L5,176 L5,209 L3,206 L3,266 L4,266 L4,278 L3,281 L6,283 L13,284 L119,284 L120,282 L105,274 L93,266 L83,258 L72,249 L57,234 L45,218 L35,202 L25,180 L22,171 L18,160 L16,147 L14,138 L11,117 L10,104 L7,103 L6,99 L4,80 Z M7,88 L6,90 L6,97 L8,97 L8,88 Z M265,116 L266,119 Z M261,139 L260,140 L260,148 L262,148 L263,142 Z M259,152 Z M257,156 L254,164 L254,167 L256,167 L259,161 L259,156 Z M249,180 L248,182 L250,184 L251,182 Z M245,188 L244,192 L246,193 L246,188 Z M247,188 Z M245,194 Z M243,195 L241,196 L241,201 L242,199 L244,199 Z M239,204 Z M237,205 L237,207 L239,206 Z M229,217 Z M230,218 Z M229,220 Z " fill="#E96912" transform="translate(0,0)"/>
<path d="M0,0 L7,0 L22,4 L63,16 L73,18 L78,20 L103,27 L120,32 L126,33 L124,37 L110,49 L99,58 L89,67 L78,76 L66,87 L55,96 L46,104 L38,111 L24,123 L12,134 L2,142 L-3,141 L-13,132 L-27,121 L-38,111 L-49,102 L-59,93 L-66,88 L-68,92 L-81,106 L-88,114 L-88,118 L-69,137 L-68,144 L-59,159 L-54,165 L-55,170 L-62,178 L-65,187 L-67,194 L-69,199 L-69,204 L-62,213 L-50,227 L-50,229 L-48,229 L-48,231 L-44,233 L-35,242 L-21,252 L-15,256 L-17,257 L-38,247 L-49,240 L-60,232 L-76,217 L-81,211 L-81,209 L-83,209 L-88,200 L-93,193 L-92,200 L-95,196 L-101,185 L-104,176 L-111,155 L-116,132 L-118,116 L-119,115 L-121,86 L-121,34 L-99,28 L-82,23 L-57,16 L-35,10 L-8,2 Z " fill="#F68110" transform="translate(132,2)"/>
<path d="M0,0 L302,0 L302,19 L291,30 L284,38 L273,49 L266,57 L259,64 L252,72 L241,84 L234,92 L225,102 L216,113 L206,124 L199,132 L188,145 L179,156 L170,166 L161,177 L149,191 L138,204 L134,209 L130,207 L108,185 L103,180 L91,167 L79,155 L74,150 L62,139 L42,119 L44,115 L56,102 L63,94 L66,90 L70,92 L84,104 L98,116 L111,127 L122,136 L131,143 L135,142 L148,131 L159,121 L170,112 L181,102 L189,95 L202,84 L212,75 L223,66 L233,57 L244,48 L257,37 L258,35 L249,34 L217,25 L206,22 L199,20 L168,11 L147,5 L139,3 L132,3 L103,11 L79,18 L57,24 L33,31 L14,36 L11,36 L12,88 L14,117 L15,118 L18,138 L23,161 L30,181 L34,191 L46,212 L54,223 L63,234 L70,242 L78,249 L91,260 L106,270 L124,280 L132,284 L132,285 L0,285 Z M12,4 L2,5 L3,8 L11,8 L11,10 L7,12 L5,16 L3,15 L2,17 L2,57 L3,64 L4,64 L5,52 L6,51 L7,57 L8,57 L8,41 L8,38 L11,34 L16,32 L30,30 L33,28 L37,27 L46,24 L52,23 L59,22 L67,18 L74,17 L75,15 L80,13 L87,10 L101,7 L101,5 L96,4 Z M106,5 L105,7 L112,7 L117,6 L117,5 Z M156,5 L158,7 L163,7 L163,5 Z M181,4 L167,5 L167,6 L176,8 L182,8 L182,10 L186,12 L187,14 L190,14 L190,12 L194,16 L214,19 L215,20 L222,21 L223,22 L230,23 L238,26 L241,27 L242,30 L250,33 L258,33 L273,29 L283,29 L293,21 L292,24 L296,22 L300,20 L300,7 L298,11 L297,14 L292,14 L291,12 L280,10 L239,10 L218,9 L258,8 L286,8 L297,7 L296,5 Z M85,12 Z M209,19 Z M217,21 Z M223,23 Z M290,24 L288,28 L292,26 L292,24 Z M287,28 L288,30 Z M285,31 Z M3,80 L2,85 L1,119 L1,136 L3,179 L5,176 L5,209 L3,206 L3,266 L4,266 L4,278 L3,281 L6,283 L13,284 L119,284 L120,282 L105,274 L93,266 L83,258 L72,249 L57,234 L45,218 L35,202 L25,180 L22,171 L18,160 L16,147 L14,138 L11,117 L10,104 L7,103 L6,99 L4,80 Z M7,88 L6,90 L6,97 L8,97 L8,88 Z " fill="#FDFCFB" transform="translate(0,0)"/>
<path d="M0,0 L7,0 L22,4 L63,16 L73,18 L78,20 L103,27 L120,32 L126,33 L124,37 L116,44 L112,45 L108,46 L93,42 L67,34 L33,25 L9,19 L0,19 L-11,22 L-28,26 L-56,34 L-80,41 L-100,47 L-104,47 L-102,105 L-100,118 L-97,141 L-93,156 L-88,169 L-84,177 L-81,185 L-72,201 L-66,208 L-57,219 L-50,227 L-50,229 L-48,229 L-48,231 L-44,233 L-35,242 L-21,252 L-15,256 L-17,257 L-38,247 L-49,240 L-60,232 L-76,217 L-81,211 L-81,209 L-83,209 L-88,200 L-93,193 L-92,200 L-95,196 L-101,185 L-104,176 L-111,155 L-116,132 L-118,116 L-119,115 L-121,86 L-121,34 L-99,28 L-82,23 L-57,16 L-35,10 L-8,2 Z " fill="#FAA510" transform="translate(132,2)"/>
<path d="M0,0 L1,0 L1,263 L-160,263 L-156,260 L-140,252 L-119,238 L-108,229 L-95,217 L-89,210 L-87,210 L-85,206 L-75,193 L-66,178 L-65,176 L-63,176 L-62,171 L-59,166 L-56,156 L-53,155 L-51,146 L-44,121 L-40,97 L-38,75 L-40,75 L-42,79 L-51,89 L-58,97 L-68,108 L-75,116 L-90,132 L-99,142 L-110,154 L-119,164 L-128,175 L-136,184 L-143,192 L-155,206 L-164,216 L-168,219 L-166,214 L-152,196 L-142,183 L-128,165 L-115,149 L-107,138 L-94,122 L-82,106 L-69,89 L-59,76 L-50,64 L-42,54 L-32,41 L-24,31 L-17,21 L-15,21 L-13,17 L-5,6 L-2,3 Z M-2,7 L-4,13 L-4,29 L-5,32 L-7,31 L-8,36 L-14,38 L-19,45 L-21,53 L-22,64 L-28,80 L-30,82 L-32,87 L-33,107 L-36,125 L-40,137 L-43,149 L-44,153 L-46,153 L-46,148 L-48,147 L-51,156 L-49,159 L-46,156 L-47,161 L-51,172 L-57,183 L-62,192 L-68,199 L-69,203 L-73,205 L-77,208 L-80,208 L-80,210 L-84,211 L-88,215 L-92,222 L-98,227 L-100,228 L-100,230 L-104,231 L-111,239 L-122,246 L-130,252 L-133,255 L-143,258 L-146,261 L-134,261 L-128,262 L-7,262 L-1,260 L0,254 L0,80 L-1,7 Z M-36,94 L-35,97 Z M-40,117 L-41,118 L-41,126 L-39,126 L-38,120 Z M-42,130 Z M-44,134 L-47,142 L-47,145 L-45,145 L-42,139 L-42,134 Z M-52,158 L-53,160 L-51,162 L-50,160 Z M-56,166 L-57,170 L-55,171 L-55,166 Z M-54,166 Z M-56,172 Z M-58,173 L-60,174 L-60,179 L-59,177 L-57,177 Z M-62,182 Z M-64,183 L-64,185 L-62,184 Z M-72,195 Z M-71,196 Z M-72,198 Z " fill="#FDF8F5" transform="translate(301,22)"/>
<path d="M0,0 L6,1 L0,8 L-13,19 L-27,31 L-42,44 L-56,56 L-67,66 L-75,73 L-89,85 L-94,89 L-99,88 L-109,79 L-123,68 L-134,58 L-145,49 L-155,40 L-160,36 L-163,35 L-164,28 L-164,20 L-161,21 L-156,26 L-145,34 L-134,43 L-118,56 L-107,65 L-98,71 L-92,72 L-82,64 L-80,64 L-80,62 L-73,56 L-68,51 L-51,38 L-38,27 L-25,17 L-13,8 Z " fill="#E25812" transform="translate(228,55)"/>
<path d="M0,0 L1,4 L-2,14 L-5,21 L-8,29 L-10,31 L-11,35 L-13,35 L-15,41 L-25,56 L-35,69 L-40,74 L-51,85 L-62,94 L-74,103 L-92,114 L-108,122 L-113,122 L-113,106 L-98,99 L-83,90 L-73,83 L-60,72 L-47,61 L-36,52 L-25,40 L-15,25 L-4,6 Z " fill="#DF5712" transform="translate(249,163)"/>
<path d="M0,0 L1,0 L3,29 L4,30 L7,50 L12,73 L19,93 L23,103 L35,124 L43,135 L52,146 L59,154 L67,161 L80,172 L95,182 L113,192 L121,196 L121,197 L107,197 L107,194 L91,185 L78,176 L61,162 L45,146 L33,130 L23,114 L13,92 L10,83 L6,72 L4,59 L2,50 L-1,29 Z " fill="#FCF5EC" transform="translate(11,88)"/>
<path d="M0,0 L19,0 L19,20 L0,20 Z " fill="#FCF4EC" transform="translate(112,88)"/>
<path d="M0,0 L20,0 L20,19 L0,19 Z " fill="#FCF4EC" transform="translate(132,65)"/>
<path d="M0,0 L18,0 L18,18 L0,18 Z " fill="#FDFCFB" transform="translate(136,89)"/>
<path d="M0,0 L5,2 L5,3 L24,6 L25,7 L32,8 L33,9 L40,10 L48,13 L52,15 L52,17 L60,20 L61,22 L45,18 L20,11 L15,9 L-2,5 L-2,2 L0,2 Z M19,7 Z M27,9 Z M33,11 Z " fill="#FDF7EF" transform="translate(190,12)"/>
<path d="M0,0 L1,0 L1,10 L-3,34 L-9,54 L-11,52 L-14,54 L-11,44 L-9,36 L-8,40 L-6,40 L-7,35 L-8,33 L-4,13 L-2,7 L0,7 Z M-9,40 Z " fill="#E57312" transform="translate(261,109)"/>
<path d="M0,0 L2,3 L5,9 L5,12 L7,12 L12,22 L13,31 L10,27 L4,16 L1,7 Z " fill="#F48A17" transform="translate(27,171)"/>
<path d="M0,0 L1,0 L3,29 L4,30 L4,38 L3,34 L0,33 L-1,29 Z " fill="#FCEFD1" transform="translate(11,88)"/>
<path d="M0,0 L20,0 L19,2 L21,4 L2,4 L2,2 Z " fill="#F16710" transform="translate(133,84)"/>
<path d="M0,0 L1,3 L-13,18 L-15,19 L-13,14 L-3,1 Z " fill="#FAE3D1" transform="translate(148,222)"/>
<path d="M0,0 L1,3 L-3,9 L-8,14 L-10,16 L-11,11 Z " fill="#F57F34" transform="translate(301,19)"/>
<path d="M0,0 L1,0 L1,10 L-1,21 L-2,21 L-3,10 L-2,7 L0,7 Z " fill="#ED953F" transform="translate(261,109)"/>
<path d="M0,0 L2,0 L2,7 L-2,20 L-4,16 L-3,13 L-1,13 Z " fill="#E87E32" transform="translate(256,136)"/>
<path d="M0,0 L2,2 L-13,17 L-15,16 L-4,5 Z " fill="#E98031" transform="translate(275,46)"/>
<path d="M0,0 L2,3 L6,12 L6,18 L4,16 L1,7 Z " fill="#F49325" transform="translate(27,171)"/>
<path d="M0,0 L2,1 L-5,9 L-8,12 L-10,11 Z " fill="#D75325" transform="translate(181,153)"/>
<path d="M0,0 L1,3 L-1,7 L-6,11 L-7,8 Z " fill="#E16224" transform="translate(221,142)"/>
<path d="M0,0 L1,0 L1,5 L-3,9 L-3,6 L-5,5 Z " fill="#F1741E" transform="translate(290,31)"/>
<path d="M0,0 L1,3 L-4,7 L-6,5 L-2,1 Z " fill="#FBEBDF" transform="translate(148,222)"/>
<path d="M0,0 L1,3 L-3,9 L-5,5 Z " fill="#F18F57" transform="translate(301,19)"/>
<path d="M0,0 L8,1 L8,2 L-2,4 Z " fill="#FDF7E9" transform="translate(47,23)"/>
<path d="M0,0 L4,0 L4,2 L0,1 Z " fill="#FEFEFE" transform="translate(205,8)"/>
<path d="M0,0 L3,1 Z " fill="#FEFEFE" transform="translate(197,8)"/>
<path d="M0,0 Z " fill="#FEFEFE" transform="translate(255,176)"/>
<path d="M0,0 Z " fill="#FEFEFE" transform="translate(7,104)"/>
</svg>
