<svg viewBox="0 0 64 64" xmlns="http://www.w3.org/2000/svg" fill="none">
  <defs>
    <linearGradient id="vx-bg" x1="0" y1="0" x2="64" y2="64" gradientUnits="userSpaceOnUse">
      <stop offset="0%" stop-color="#1c1308"/>
      <stop offset="55%" stop-color="#0d0d10"/>
      <stop offset="100%" stop-color="#08080a"/>
    </linearGradient>
    <linearGradient id="vx-orange" x1="10" y1="6" x2="54" y2="58" gradientUnits="userSpaceOnUse">
      <stop offset="0%" stop-color="#fdba74"/>
      <stop offset="50%" stop-color="#f97316"/>
      <stop offset="100%" stop-color="#b8460a"/>
    </linearGradient>
    <linearGradient id="vx-sheen" x1="32" y1="0" x2="32" y2="64" gradientUnits="userSpaceOnUse">
      <stop offset="0%" stop-color="#ffffff" stop-opacity="0.20"/>
      <stop offset="60%" stop-color="#ffffff" stop-opacity="0"/>
    </linearGradient>
    <radialGradient id="vx-glow" cx="32" cy="46" r="22" gradientUnits="userSpaceOnUse">
      <stop offset="0%" stop-color="#fb923c" stop-opacity="0.55"/>
      <stop offset="100%" stop-color="#fb923c" stop-opacity="0"/>
    </radialGradient>
  </defs>

  <rect x="1" y="1" width="62" height="62" rx="15" fill="url(#vx-bg)"/>
  <rect x="1" y="1" width="62" height="62" rx="15" fill="url(#vx-glow)"/>
  <rect x="1" y="1" width="62" height="62" rx="15" fill="url(#vx-sheen)"/>
  <rect x="1.25" y="1.25" width="61.5" height="61.5" rx="14.75" fill="none" stroke="#f97316" stroke-opacity="0.32" stroke-width="0.75"/>

  <rect x="22" y="11" width="20" height="3.2" rx="1.6" fill="url(#vx-orange)" opacity="0.9"/>
  <circle cx="22" cy="12.6" r="1.4" fill="#fdba74"/>
  <circle cx="42" cy="12.6" r="1.4" fill="#fdba74"/>

  <path d="M14.5 19 L31.2 49.5 Q32 51 32.8 49.5 L49.5 19" stroke="url(#vx-orange)" stroke-width="7" stroke-linecap="round" stroke-linejoin="round" fill="none"/>

  <path d="M16.5 19.6 L24 19.6" stroke="#ffffff" stroke-opacity="0.35" stroke-width="1.2" stroke-linecap="round"/>

  <circle cx="32" cy="50" r="5.5" fill="#08080a"/>
  <circle cx="32" cy="50" r="3.6" fill="url(#vx-orange)"/>
  <circle cx="32" cy="50" r="1.2" fill="#ffffff"/>
</svg>
